# xmcd
#
# Track frame offsets:
#	150
#	16149
#	32966
#	50883
#	63276
#	79924
#	91538
#	103030
#	119296
#	126718
#	139028
#	160187
#	163563
#
# Disc length: 2381 seconds
#
# Revision: 4
# Processed by: cddbd v1.4PL0 Copyright (c) Steve Scherf et al.
# Submitted via: EasyCDDAExtractor 4.6.9.1
#
DISCID=ab094b0d
DTITLE=Austin Lounge Lizards - Employee Of The Month
DYEAR=1998
DGENRE=Country
TTITLE0=Stupid Texas Song
TTITLE1=Hey, Little Minivan
TTITLE2=The Dogs, They Really Miss You
TTITLE3=Rocky Byways
TTITLE4=Last Words
TTITLE5=Monkey On My Back
TTITLE6=Flatnose, The Tree-Climbing Dog
TTITLE7=Love In A Refrigerator Box
TTITLE8=La Cacahuate
TTITLE9=Trailways Of Tears
TTITLE10=Leonard Cohen's Day Job
TTITLE11=Momma Don't Allow
TTITLE12=The Other Shore
EXTD=
EXTT0=
EXTT1=
EXTT2=
EXTT3=
EXTT4=
EXTT5=
EXTT6=
EXTT7=
EXTT8=
EXTT9=
EXTT10=
EXTT11=
EXTT12=
PLAYORDER=
